STARTFONT 2.1
FONT -FontForge-Zen Loop-Book-R-Normal--9-90-72-72-P-29-ISO10646-1
SIZE 9 72 72
FONTBOUNDINGBOX 8 12 -1 -3
COMMENT "Generated by fontforge, http://fontforge.sourceforge.net"
COMMENT "Copyright 2021 The Zen-Loop Project Authors (https://github.com/googlefonts/zen-loop)"
STARTPROPERTIES 39
FOUNDRY "FontForge"
FAMILY_NAME "Zen Loop"
WEIGHT_NAME "Book"
SLANT "R"
SETWIDTH_NAME "Normal"
ADD_STYLE_NAME ""
PIXEL_SIZE 9
POINT_SIZE 90
RESOLUTION_X 72
RESOLUTION_Y 72
SPACING "P"
AVERAGE_WIDTH 29
CHARSET_REGISTRY "ISO10646"
CHARSET_ENCODING "1"
FONTNAME_REGISTRY ""
CHARSET_COLLECTIONS "ISO10646-1"
FONT_NAME "ZenLoop-Regular"
FACE_NAME "Zen Loop Regular"
COPYRIGHT "Copyright 2021 The Zen-Loop Project Authors (https://github.com/googlefonts/zen-loop)"
FONT_VERSION "1.000; ttfautohint (v1.8.3)"
FONT_ASCENT 7
FONT_DESCENT 2
UNDERLINE_POSITION -1
UNDERLINE_THICKNESS 1
X_HEIGHT 4
CAP_HEIGHT 6
RAW_ASCENT 800
RAW_DESCENT 200
NORM_SPACE 2
RELATIVE_WEIGHT 40
RELATIVE_SETWIDTH 50
SUPERSCRIPT_X 0
SUPERSCRIPT_Y 3
SUPERSCRIPT_SIZE 5
SUBSCRIPT_X 0
SUBSCRIPT_Y 0
SUBSCRIPT_SIZE 5
AVG_LOWERCASE_WIDTH 27
AVG_UPPERCASE_WIDTH 34
ENDPROPERTIES
CHARS 248
STARTCHAR CR
ENCODING 13
SWIDTH 600 0
DWIDTH 5 0
BBX 1 1 0 0
BITMAP
00
ENDCHAR
STARTCHAR space
ENCODING 32
SWIDTH 240 0
DWIDTH 2 0
BBX 1 1 0 0
BITMAP
00
ENDCHAR
STARTCHAR exclam
ENCODING 33
SWIDTH 141 0
DWIDTH 1 0
BBX 1 7 0 0
BITMAP
80
80
80
80
80
00
80
ENDCHAR
STARTCHAR quotedbl
ENCODING 34
SWIDTH 195 0
DWIDTH 2 0
BBX 1 2 0 5
BITMAP
80
80
ENDCHAR
STARTCHAR numbersign
ENCODING 35
SWIDTH 454 0
DWIDTH 4 0
BBX 4 7 0 0
BITMAP
50
50
60
60
F0
A0
A0
ENDCHAR
STARTCHAR dollar
ENCODING 36
SWIDTH 356 0
DWIDTH 3 0
BBX 3 9 0 -1
BITMAP
40
60
C0
40
40
60
E0
60
40
ENDCHAR
STARTCHAR percent
ENCODING 37
SWIDTH 470 0
DWIDTH 4 0
BBX 4 7 0 0
BITMAP
C0
D0
60
20
50
50
70
ENDCHAR
STARTCHAR ampersand
ENCODING 38
SWIDTH 520 0
DWIDTH 5 0
BBX 4 7 0 0
BITMAP
60
60
40
50
A0
A0
F0
ENDCHAR
STARTCHAR quotesingle
ENCODING 39
SWIDTH 121 0
DWIDTH 1 0
BBX 1 2 0 5
BITMAP
80
80
ENDCHAR
STARTCHAR parenleft
ENCODING 40
SWIDTH 233 0
DWIDTH 2 0
BBX 1 7 1 -1
BITMAP
80
80
80
80
80
80
80
ENDCHAR
STARTCHAR parenright
ENCODING 41
SWIDTH 233 0
DWIDTH 2 0
BBX 1 7 0 0
BITMAP
80
80
80
80
80
80
80
ENDCHAR
STARTCHAR asterisk
ENCODING 42
SWIDTH 313 0
DWIDTH 3 0
BBX 2 2 0 5
BITMAP
40
C0
ENDCHAR
STARTCHAR plus
ENCODING 43
SWIDTH 577 0
DWIDTH 5 0
BBX 5 5 0 0
BITMAP
20
20
F8
20
20
ENDCHAR
STARTCHAR comma
ENCODING 44
SWIDTH 145 0
DWIDTH 1 0
BBX 1 2 0 -2
BITMAP
80
80
ENDCHAR
STARTCHAR hyphen
ENCODING 45
SWIDTH 286 0
DWIDTH 3 0
BBX 2 1 0 3
BITMAP
C0
ENDCHAR
STARTCHAR period
ENCODING 46
SWIDTH 181 0
DWIDTH 2 0
BBX 1 1 0 0
BITMAP
80
ENDCHAR
STARTCHAR slash
ENCODING 47
SWIDTH 292 0
DWIDTH 3 0
BBX 3 9 0 -1
BITMAP
20
20
40
40
40
40
80
80
80
ENDCHAR
STARTCHAR zero
ENCODING 48
SWIDTH 378 0
DWIDTH 3 0
BBX 3 7 0 0
BITMAP
40
A0
A0
A0
A0
A0
40
ENDCHAR
STARTCHAR one
ENCODING 49
SWIDTH 303 0
DWIDTH 3 0
BBX 3 7 0 0
BITMAP
C0
40
40
40
40
40
E0
ENDCHAR
STARTCHAR two
ENCODING 50
SWIDTH 343 0
DWIDTH 3 0
BBX 3 7 0 0
BITMAP
E0
20
20
20
40
80
E0
ENDCHAR
STARTCHAR three
ENCODING 51
SWIDTH 377 0
DWIDTH 3 0
BBX 3 7 0 0
BITMAP
E0
20
40
60
20
20
E0
ENDCHAR
STARTCHAR four
ENCODING 52
SWIDTH 389 0
DWIDTH 4 0
BBX 3 7 0 0
BITMAP
20
40
40
A0
E0
20
20
ENDCHAR
STARTCHAR five
ENCODING 53
SWIDTH 372 0
DWIDTH 3 0
BBX 3 7 0 0
BITMAP
60
40
40
A0
A0
20
E0
ENDCHAR
STARTCHAR six
ENCODING 54
SWIDTH 360 0
DWIDTH 3 0
BBX 3 7 0 0
BITMAP
40
40
80
C0
A0
A0
E0
ENDCHAR
STARTCHAR seven
ENCODING 55
SWIDTH 321 0
DWIDTH 3 0
BBX 3 7 0 0
BITMAP
E0
20
40
40
40
80
80
ENDCHAR
STARTCHAR eight
ENCODING 56
SWIDTH 377 0
DWIDTH 3 0
BBX 3 7 0 0
BITMAP
E0
A0
A0
40
A0
A0
E0
ENDCHAR
STARTCHAR nine
ENCODING 57
SWIDTH 360 0
DWIDTH 3 0
BBX 3 7 0 -1
BITMAP
E0
A0
A0
60
20
20
40
ENDCHAR
STARTCHAR colon
ENCODING 58
SWIDTH 181 0
DWIDTH 2 0
BBX 1 4 0 0
BITMAP
80
00
00
80
ENDCHAR
STARTCHAR semicolon
ENCODING 59
SWIDTH 165 0
DWIDTH 1 0
BBX 1 6 0 -2
BITMAP
80
00
00
00
80
80
ENDCHAR
STARTCHAR less
ENCODING 60
SWIDTH 482 0
DWIDTH 4 0
BBX 4 4 0 0
BITMAP
30
C0
60
10
ENDCHAR
STARTCHAR equal
ENCODING 61
SWIDTH 577 0
DWIDTH 5 0
BBX 5 3 0 1
BITMAP
F8
00
F8
ENDCHAR
STARTCHAR greater
ENCODING 62
SWIDTH 482 0
DWIDTH 4 0
BBX 4 4 0 0
BITMAP
C0
20
30
C0
ENDCHAR
STARTCHAR question
ENCODING 63
SWIDTH 300 0
DWIDTH 3 0
BBX 2 7 0 0
BITMAP
C0
40
40
40
40
00
40
ENDCHAR
STARTCHAR at
ENCODING 64
SWIDTH 748 0
DWIDTH 7 0
BBX 6 7 0 0
BITMAP
78
AC
AC
B4
B4
A8
7C
ENDCHAR
STARTCHAR A
ENCODING 65
SWIDTH 414 0
DWIDTH 4 0
BBX 4 7 0 0
BITMAP
40
40
60
60
60
90
90
ENDCHAR
STARTCHAR B
ENCODING 66
SWIDTH 375 0
DWIDTH 3 0
BBX 2 7 1 0
BITMAP
80
C0
C0
C0
C0
C0
80
ENDCHAR
STARTCHAR C
ENCODING 67
SWIDTH 366 0
DWIDTH 3 0
BBX 3 7 0 0
BITMAP
60
80
80
80
80
80
60
ENDCHAR
STARTCHAR D
ENCODING 68
SWIDTH 396 0
DWIDTH 4 0
BBX 2 7 1 0
BITMAP
C0
C0
C0
C0
C0
C0
C0
ENDCHAR
STARTCHAR E
ENCODING 69
SWIDTH 309 0
DWIDTH 3 0
BBX 1 7 1 0
BITMAP
80
80
80
80
80
80
80
ENDCHAR
STARTCHAR F
ENCODING 70
SWIDTH 299 0
DWIDTH 3 0
BBX 1 7 1 0
BITMAP
80
80
80
80
80
80
80
ENDCHAR
STARTCHAR G
ENCODING 71
SWIDTH 382 0
DWIDTH 3 0
BBX 3 7 0 0
BITMAP
60
80
80
A0
A0
A0
60
ENDCHAR
STARTCHAR H
ENCODING 72
SWIDTH 425 0
DWIDTH 4 0
BBX 2 7 1 0
BITMAP
C0
C0
C0
C0
C0
C0
C0
ENDCHAR
STARTCHAR I
ENCODING 73
SWIDTH 141 0
DWIDTH 1 0
BBX 1 7 0 0
BITMAP
80
80
80
80
80
80
80
ENDCHAR
STARTCHAR J
ENCODING 74
SWIDTH 142 0
DWIDTH 1 0
BBX 2 9 -1 -2
BITMAP
40
40
40
40
40
40
40
40
C0
ENDCHAR
STARTCHAR K
ENCODING 75
SWIDTH 401 0
DWIDTH 4 0
BBX 3 7 0 0
BITMAP
A0
A0
C0
A0
A0
A0
A0
ENDCHAR
STARTCHAR L
ENCODING 76
SWIDTH 347 0
DWIDTH 3 0
BBX 2 7 1 0
BITMAP
80
80
80
80
80
80
C0
ENDCHAR
STARTCHAR M
ENCODING 77
SWIDTH 534 0
DWIDTH 5 0
BBX 4 7 0 0
BITMAP
D0
B0
B0
B0
B0
90
90
ENDCHAR
STARTCHAR N
ENCODING 78
SWIDTH 422 0
DWIDTH 4 0
BBX 2 7 1 0
BITMAP
C0
C0
C0
C0
C0
C0
C0
ENDCHAR
STARTCHAR O
ENCODING 79
SWIDTH 446 0
DWIDTH 4 0
BBX 4 7 0 0
BITMAP
60
90
90
90
90
90
60
ENDCHAR
STARTCHAR P
ENCODING 80
SWIDTH 341 0
DWIDTH 3 0
BBX 2 7 1 0
BITMAP
80
C0
C0
80
80
80
80
ENDCHAR
STARTCHAR Q
ENCODING 81
SWIDTH 446 0
DWIDTH 4 0
BBX 4 10 0 -3
BITMAP
60
90
90
90
90
E0
60
40
40
40
ENDCHAR
STARTCHAR R
ENCODING 82
SWIDTH 380 0
DWIDTH 3 0
BBX 3 7 0 0
BITMAP
E0
A0
A0
C0
A0
A0
A0
ENDCHAR
STARTCHAR S
ENCODING 83
SWIDTH 356 0
DWIDTH 3 0
BBX 3 7 0 0
BITMAP
E0
80
80
40
20
A0
E0
ENDCHAR
STARTCHAR T
ENCODING 84
SWIDTH 377 0
DWIDTH 3 0
BBX 3 7 0 0
BITMAP
E0
40
40
40
40
40
40
ENDCHAR
STARTCHAR U
ENCODING 85
SWIDTH 412 0
DWIDTH 4 0
BBX 3 7 0 0
BITMAP
A0
A0
A0
A0
A0
A0
E0
ENDCHAR
STARTCHAR V
ENCODING 86
SWIDTH 384 0
DWIDTH 3 0
BBX 3 7 0 0
BITMAP
A0
A0
A0
A0
40
40
40
ENDCHAR
STARTCHAR W
ENCODING 87
SWIDTH 534 0
DWIDTH 5 0
BBX 4 7 0 0
BITMAP
90
90
B0
B0
B0
F0
90
ENDCHAR
STARTCHAR X
ENCODING 88
SWIDTH 318 0
DWIDTH 3 0
BBX 3 7 0 0
BITMAP
A0
A0
40
40
40
A0
A0
ENDCHAR
STARTCHAR Y
ENCODING 89
SWIDTH 370 0
DWIDTH 3 0
BBX 3 7 0 0
BITMAP
A0
A0
40
40
40
40
40
ENDCHAR
STARTCHAR Z
ENCODING 90
SWIDTH 309 0
DWIDTH 3 0
BBX 3 7 0 0
BITMAP
E0
40
40
40
40
80
E0
ENDCHAR
STARTCHAR bracketleft
ENCODING 91
SWIDTH 193 0
DWIDTH 2 0
BBX 1 9 1 -1
BITMAP
80
80
80
80
80
80
80
80
80
ENDCHAR
STARTCHAR backslash
ENCODING 92
SWIDTH 292 0
DWIDTH 3 0
BBX 3 9 0 -1
BITMAP
80
80
80
80
40
40
40
20
20
ENDCHAR
STARTCHAR bracketright
ENCODING 93
SWIDTH 193 0
DWIDTH 2 0
BBX 1 9 0 -1
BITMAP
80
80
80
80
80
80
80
80
80
ENDCHAR
STARTCHAR asciicircum
ENCODING 94
SWIDTH 416 0
DWIDTH 4 0
BBX 4 4 0 3
BITMAP
40
60
A0
90
ENDCHAR
STARTCHAR underscore
ENCODING 95
SWIDTH 556 0
DWIDTH 5 0
BBX 5 1 0 -1
BITMAP
F8
ENDCHAR
STARTCHAR grave
ENCODING 96
SWIDTH 201 0
DWIDTH 2 0
BBX 1 1 0 6
BITMAP
80
ENDCHAR
STARTCHAR a
ENCODING 97
SWIDTH 315 0
DWIDTH 3 0
BBX 3 5 0 0
BITMAP
C0
20
40
A0
E0
ENDCHAR
STARTCHAR b
ENCODING 98
SWIDTH 298 0
DWIDTH 3 0
BBX 1 7 1 0
BITMAP
80
80
80
80
80
80
80
ENDCHAR
STARTCHAR c
ENCODING 99
SWIDTH 275 0
DWIDTH 2 0
BBX 2 5 0 0
BITMAP
C0
80
80
80
C0
ENDCHAR
STARTCHAR d
ENCODING 100
SWIDTH 298 0
DWIDTH 3 0
BBX 2 7 0 0
BITMAP
40
40
C0
C0
C0
C0
C0
ENDCHAR
STARTCHAR e
ENCODING 101
SWIDTH 285 0
DWIDTH 3 0
BBX 2 5 0 0
BITMAP
C0
C0
C0
80
C0
ENDCHAR
STARTCHAR f
ENCODING 102
SWIDTH 178 0
DWIDTH 2 0
BBX 2 7 0 0
BITMAP
C0
80
C0
80
80
80
80
ENDCHAR
STARTCHAR g
ENCODING 103
SWIDTH 302 0
DWIDTH 3 0
BBX 3 8 0 -2
BITMAP
20
C0
A0
A0
40
C0
A0
E0
ENDCHAR
STARTCHAR h
ENCODING 104
SWIDTH 307 0
DWIDTH 3 0
BBX 1 7 1 0
BITMAP
80
80
80
80
80
80
80
ENDCHAR
STARTCHAR i
ENCODING 105
SWIDTH 141 0
DWIDTH 1 0
BBX 1 7 0 0
BITMAP
80
00
80
80
80
80
80
ENDCHAR
STARTCHAR j
ENCODING 106
SWIDTH 141 0
DWIDTH 1 0
BBX 2 9 -1 -2
BITMAP
40
00
40
40
40
40
40
40
C0
ENDCHAR
STARTCHAR k
ENCODING 107
SWIDTH 287 0
DWIDTH 3 0
BBX 1 7 1 0
BITMAP
80
80
80
80
80
80
80
ENDCHAR
STARTCHAR l
ENCODING 108
SWIDTH 141 0
DWIDTH 1 0
BBX 1 7 0 0
BITMAP
80
80
80
80
80
80
80
ENDCHAR
STARTCHAR m
ENCODING 109
SWIDTH 407 0
DWIDTH 4 0
BBX 2 5 1 0
BITMAP
C0
C0
C0
C0
C0
ENDCHAR
STARTCHAR n
ENCODING 110
SWIDTH 307 0
DWIDTH 3 0
BBX 1 5 1 0
BITMAP
80
80
80
80
80
ENDCHAR
STARTCHAR o
ENCODING 111
SWIDTH 309 0
DWIDTH 3 0
BBX 2 5 0 0
BITMAP
C0
C0
C0
C0
C0
ENDCHAR
STARTCHAR p
ENCODING 112
SWIDTH 299 0
DWIDTH 3 0
BBX 2 8 0 -2
BITMAP
80
C0
C0
C0
C0
C0
80
80
ENDCHAR
STARTCHAR q
ENCODING 113
SWIDTH 286 0
DWIDTH 3 0
BBX 3 7 0 -2
BITMAP
C0
A0
A0
A0
C0
20
20
ENDCHAR
STARTCHAR r
ENCODING 114
SWIDTH 277 0
DWIDTH 3 0
BBX 1 5 1 0
BITMAP
80
80
80
80
80
ENDCHAR
STARTCHAR s
ENCODING 115
SWIDTH 257 0
DWIDTH 2 0
BBX 2 5 0 0
BITMAP
C0
80
40
40
C0
ENDCHAR
STARTCHAR t
ENCODING 116
SWIDTH 207 0
DWIDTH 2 0
BBX 2 7 0 0
BITMAP
80
80
C0
80
80
80
C0
ENDCHAR
STARTCHAR u
ENCODING 117
SWIDTH 307 0
DWIDTH 3 0
BBX 2 5 0 0
BITMAP
C0
C0
C0
C0
C0
ENDCHAR
STARTCHAR v
ENCODING 118
SWIDTH 285 0
DWIDTH 3 0
BBX 2 5 0 0
BITMAP
C0
C0
C0
40
40
ENDCHAR
STARTCHAR w
ENCODING 119
SWIDTH 396 0
DWIDTH 4 0
BBX 3 5 0 0
BITMAP
A0
E0
E0
E0
A0
ENDCHAR
STARTCHAR x
ENCODING 120
SWIDTH 244 0
DWIDTH 2 0
BBX 2 5 0 0
BITMAP
C0
80
40
40
C0
ENDCHAR
STARTCHAR y
ENCODING 121
SWIDTH 285 0
DWIDTH 3 0
BBX 2 7 0 -2
BITMAP
C0
C0
C0
40
40
40
80
ENDCHAR
STARTCHAR z
ENCODING 122
SWIDTH 233 0
DWIDTH 2 0
BBX 2 5 0 0
BITMAP
C0
40
40
80
C0
ENDCHAR
STARTCHAR braceleft
ENCODING 123
SWIDTH 306 0
DWIDTH 3 0
BBX 3 9 0 -1
BITMAP
20
40
40
C0
C0
40
40
40
20
ENDCHAR
STARTCHAR bar
ENCODING 124
SWIDTH 141 0
DWIDTH 1 0
BBX 1 9 0 -1
BITMAP
80
80
80
80
80
80
80
80
80
ENDCHAR
STARTCHAR braceright
ENCODING 125
SWIDTH 306 0
DWIDTH 3 0
BBX 3 9 0 -1
BITMAP
80
40
40
40
60
40
40
40
80
ENDCHAR
STARTCHAR asciitilde
ENCODING 126
SWIDTH 433 0
DWIDTH 4 0
BBX 4 2 0 2
BITMAP
50
A0
ENDCHAR
STARTCHAR uni00A0
ENCODING 160
SWIDTH 240 0
DWIDTH 2 0
BBX 1 1 0 0
BITMAP
00
ENDCHAR
STARTCHAR exclamdown
ENCODING 161
SWIDTH 141 0
DWIDTH 1 0
BBX 1 7 0 -2
BITMAP
80
00
80
80
80
80
80
ENDCHAR
STARTCHAR cent
ENCODING 162
SWIDTH 275 0
DWIDTH 2 0
BBX 2 7 0 -1
BITMAP
40
40
C0
80
80
C0
40
ENDCHAR
STARTCHAR sterling
ENCODING 163
SWIDTH 331 0
DWIDTH 3 0
BBX 3 7 0 0
BITMAP
E0
80
80
C0
40
40
E0
ENDCHAR
STARTCHAR currency
ENCODING 164
SWIDTH 506 0
DWIDTH 5 0
BBX 4 4 0 1
BITMAP
F0
90
90
F0
ENDCHAR
STARTCHAR yen
ENCODING 165
SWIDTH 370 0
DWIDTH 3 0
BBX 3 7 0 0
BITMAP
A0
A0
40
40
E0
E0
40
ENDCHAR
STARTCHAR brokenbar
ENCODING 166
SWIDTH 141 0
DWIDTH 1 0
BBX 1 9 0 -1
BITMAP
80
80
80
80
00
80
80
80
80
ENDCHAR
STARTCHAR section
ENCODING 167
SWIDTH 303 0
DWIDTH 3 0
BBX 2 10 0 -1
BITMAP
40
C0
80
40
40
C0
C0
40
40
C0
ENDCHAR
STARTCHAR dieresis
ENCODING 168
SWIDTH 241 0
DWIDTH 2 0
BBX 1 1 1 6
BITMAP
80
ENDCHAR
STARTCHAR copyright
ENCODING 169
SWIDTH 772 0
DWIDTH 7 0
BBX 7 8 0 0
BITMAP
38
54
A2
A2
A2
A2
54
38
ENDCHAR
STARTCHAR ordfeminine
ENCODING 170
SWIDTH 231 0
DWIDTH 2 0
BBX 2 3 0 3
BITMAP
C0
40
C0
ENDCHAR
STARTCHAR guillemotleft
ENCODING 171
SWIDTH 403 0
DWIDTH 4 0
BBX 3 4 0 1
BITMAP
60
A0
A0
60
ENDCHAR
STARTCHAR logicalnot
ENCODING 172
SWIDTH 557 0
DWIDTH 5 0
BBX 5 2 0 2
BITMAP
F8
08
ENDCHAR
STARTCHAR uni00AD
ENCODING 173
SWIDTH 286 0
DWIDTH 3 0
BBX 2 1 0 3
BITMAP
C0
ENDCHAR
STARTCHAR registered
ENCODING 174
SWIDTH 772 0
DWIDTH 7 0
BBX 7 8 0 0
BITMAP
38
54
AA
AA
92
AA
44
38
ENDCHAR
STARTCHAR macron
ENCODING 175
SWIDTH 266 0
DWIDTH 2 0
BBX 1 1 1 6
BITMAP
80
ENDCHAR
STARTCHAR degree
ENCODING 176
SWIDTH 350 0
DWIDTH 3 0
BBX 3 3 0 4
BITMAP
40
A0
40
ENDCHAR
STARTCHAR plusminus
ENCODING 177
SWIDTH 577 0
DWIDTH 5 0
BBX 5 5 0 0
BITMAP
20
20
F8
20
F8
ENDCHAR
STARTCHAR uni00B2
ENCODING 178
SWIDTH 207 0
DWIDTH 2 0
BBX 2 3 0 3
BITMAP
C0
40
C0
ENDCHAR
STARTCHAR uni00B3
ENCODING 179
SWIDTH 214 0
DWIDTH 2 0
BBX 2 3 0 3
BITMAP
80
80
C0
ENDCHAR
STARTCHAR acute
ENCODING 180
SWIDTH 201 0
DWIDTH 2 0
BBX 1 1 0 6
BITMAP
80
ENDCHAR
STARTCHAR uni00B5
ENCODING 181
SWIDTH 335 0
DWIDTH 3 0
BBX 2 7 1 -2
BITMAP
80
80
80
80
C0
80
80
ENDCHAR
STARTCHAR paragraph
ENCODING 182
SWIDTH 471 0
DWIDTH 4 0
BBX 3 7 1 0
BITMAP
E0
E0
E0
60
60
60
60
ENDCHAR
STARTCHAR periodcentered
ENCODING 183
SWIDTH 181 0
DWIDTH 2 0
BBX 1 1 0 2
BITMAP
80
ENDCHAR
STARTCHAR cedilla
ENCODING 184
SWIDTH 232 0
DWIDTH 2 0
BBX 1 2 1 -2
BITMAP
80
80
ENDCHAR
STARTCHAR uni00B9
ENCODING 185
SWIDTH 176 0
DWIDTH 2 0
BBX 1 3 0 3
BITMAP
80
80
80
ENDCHAR
STARTCHAR ordmasculine
ENCODING 186
SWIDTH 201 0
DWIDTH 2 0
BBX 2 3 0 3
BITMAP
80
C0
80
ENDCHAR
STARTCHAR guillemotright
ENCODING 187
SWIDTH 403 0
DWIDTH 4 0
BBX 3 4 0 0
BITMAP
C0
60
60
A0
ENDCHAR
STARTCHAR onequarter
ENCODING 188
SWIDTH 527 0
DWIDTH 5 0
BBX 4 7 0 0
BITMAP
10
D0
60
E0
30
50
50
ENDCHAR
STARTCHAR onehalf
ENCODING 189
SWIDTH 540 0
DWIDTH 5 0
BBX 4 7 0 0
BITMAP
10
D0
60
E0
30
50
50
ENDCHAR
STARTCHAR threequarters
ENCODING 190
SWIDTH 517 0
DWIDTH 5 0
BBX 4 7 0 0
BITMAP
10
90
A0
E0
30
50
50
ENDCHAR
STARTCHAR questiondown
ENCODING 191
SWIDTH 300 0
DWIDTH 3 0
BBX 2 7 0 -2
BITMAP
40
00
40
40
80
80
C0
ENDCHAR
STARTCHAR Agrave
ENCODING 192
SWIDTH 414 0
DWIDTH 4 0
BBX 4 9 0 0
BITMAP
40
00
40
40
60
60
60
90
90
ENDCHAR
STARTCHAR Aacute
ENCODING 193
SWIDTH 414 0
DWIDTH 4 0
BBX 4 9 0 0
BITMAP
20
00
40
40
60
60
60
90
90
ENDCHAR
STARTCHAR Acircumflex
ENCODING 194
SWIDTH 414 0
DWIDTH 4 0
BBX 4 7 0 0
BITMAP
40
40
60
60
60
90
90
ENDCHAR
STARTCHAR Atilde
ENCODING 195
SWIDTH 414 0
DWIDTH 4 0
BBX 4 9 0 0
BITMAP
60
00
40
40
60
60
60
90
90
ENDCHAR
STARTCHAR Adieresis
ENCODING 196
SWIDTH 414 0
DWIDTH 4 0
BBX 4 9 0 0
BITMAP
40
00
40
40
60
60
60
90
90
ENDCHAR
STARTCHAR Aring
ENCODING 197
SWIDTH 414 0
DWIDTH 4 0
BBX 4 9 0 0
BITMAP
40
40
40
40
60
60
60
90
90
ENDCHAR
STARTCHAR AE
ENCODING 198
SWIDTH 545 0
DWIDTH 5 0
BBX 5 7 0 0
BITMAP
38
20
60
50
60
A0
B8
ENDCHAR
STARTCHAR Ccedilla
ENCODING 199
SWIDTH 366 0
DWIDTH 3 0
BBX 3 9 0 -2
BITMAP
60
80
80
80
80
80
60
20
40
ENDCHAR
STARTCHAR Egrave
ENCODING 200
SWIDTH 309 0
DWIDTH 3 0
BBX 1 9 1 0
BITMAP
80
00
80
80
80
80
80
80
80
ENDCHAR
STARTCHAR Eacute
ENCODING 201
SWIDTH 309 0
DWIDTH 3 0
BBX 1 9 1 0
BITMAP
80
00
80
80
80
80
80
80
80
ENDCHAR
STARTCHAR Ecircumflex
ENCODING 202
SWIDTH 309 0
DWIDTH 3 0
BBX 1 7 1 0
BITMAP
80
80
80
80
80
80
80
ENDCHAR
STARTCHAR Edieresis
ENCODING 203
SWIDTH 309 0
DWIDTH 3 0
BBX 1 9 1 0
BITMAP
80
00
80
80
80
80
80
80
80
ENDCHAR
STARTCHAR Igrave
ENCODING 204
SWIDTH 141 0
DWIDTH 1 0
BBX 1 9 0 0
BITMAP
80
00
80
80
80
80
80
80
80
ENDCHAR
STARTCHAR Iacute
ENCODING 205
SWIDTH 141 0
DWIDTH 1 0
BBX 1 9 0 0
BITMAP
80
00
80
80
80
80
80
80
80
ENDCHAR
STARTCHAR Icircumflex
ENCODING 206
SWIDTH 141 0
DWIDTH 1 0
BBX 1 7 0 0
BITMAP
80
80
80
80
80
80
80
ENDCHAR
STARTCHAR Idieresis
ENCODING 207
SWIDTH 141 0
DWIDTH 1 0
BBX 1 9 0 0
BITMAP
80
00
80
80
80
80
80
80
80
ENDCHAR
STARTCHAR Eth
ENCODING 208
SWIDTH 396 0
DWIDTH 4 0
BBX 3 7 0 0
BITMAP
E0
A0
A0
E0
A0
A0
E0
ENDCHAR
STARTCHAR Ntilde
ENCODING 209
SWIDTH 422 0
DWIDTH 4 0
BBX 2 9 1 0
BITMAP
C0
00
C0
C0
C0
C0
C0
C0
C0
ENDCHAR
STARTCHAR Ograve
ENCODING 210
SWIDTH 446 0
DWIDTH 4 0
BBX 4 9 0 0
BITMAP
40
00
60
90
90
90
90
90
60
ENDCHAR
STARTCHAR Oacute
ENCODING 211
SWIDTH 446 0
DWIDTH 4 0
BBX 4 9 0 0
BITMAP
20
00
60
90
90
90
90
90
60
ENDCHAR
STARTCHAR Ocircumflex
ENCODING 212
SWIDTH 446 0
DWIDTH 4 0
BBX 4 7 0 0
BITMAP
60
90
90
90
90
90
60
ENDCHAR
STARTCHAR Otilde
ENCODING 213
SWIDTH 446 0
DWIDTH 4 0
BBX 4 9 0 0
BITMAP
60
00
60
90
90
90
90
90
60
ENDCHAR
STARTCHAR Odieresis
ENCODING 214
SWIDTH 446 0
DWIDTH 4 0
BBX 4 9 0 0
BITMAP
20
00
60
90
90
90
90
90
60
ENDCHAR
STARTCHAR multiply
ENCODING 215
SWIDTH 445 0
DWIDTH 4 0
BBX 4 4 0 0
BITMAP
10
60
60
90
ENDCHAR
STARTCHAR Oslash
ENCODING 216
SWIDTH 446 0
DWIDTH 4 0
BBX 4 7 0 0
BITMAP
60
A0
B0
B0
D0
90
E0
ENDCHAR
STARTCHAR Ugrave
ENCODING 217
SWIDTH 412 0
DWIDTH 4 0
BBX 3 9 0 0
BITMAP
40
00
A0
A0
A0
A0
A0
A0
E0
ENDCHAR
STARTCHAR Uacute
ENCODING 218
SWIDTH 412 0
DWIDTH 4 0
BBX 3 9 0 0
BITMAP
20
00
A0
A0
A0
A0
A0
A0
E0
ENDCHAR
STARTCHAR Ucircumflex
ENCODING 219
SWIDTH 412 0
DWIDTH 4 0
BBX 3 7 0 0
BITMAP
E0
A0
A0
A0
A0
A0
E0
ENDCHAR
STARTCHAR Udieresis
ENCODING 220
SWIDTH 412 0
DWIDTH 4 0
BBX 3 9 0 0
BITMAP
40
00
A0
A0
A0
A0
A0
A0
E0
ENDCHAR
STARTCHAR Yacute
ENCODING 221
SWIDTH 370 0
DWIDTH 3 0
BBX 3 9 0 0
BITMAP
40
00
A0
A0
40
40
40
40
40
ENDCHAR
STARTCHAR Thorn
ENCODING 222
SWIDTH 341 0
DWIDTH 3 0
BBX 2 7 1 0
BITMAP
80
80
C0
C0
80
80
80
ENDCHAR
STARTCHAR germandbls
ENCODING 223
SWIDTH 327 0
DWIDTH 3 0
BBX 2 7 1 0
BITMAP
80
80
80
80
C0
80
80
ENDCHAR
STARTCHAR agrave
ENCODING 224
SWIDTH 315 0
DWIDTH 3 0
BBX 3 7 0 0
BITMAP
40
00
C0
20
40
A0
E0
ENDCHAR
STARTCHAR aacute
ENCODING 225
SWIDTH 315 0
DWIDTH 3 0
BBX 3 7 0 0
BITMAP
40
00
C0
20
40
A0
E0
ENDCHAR
STARTCHAR acircumflex
ENCODING 226
SWIDTH 315 0
DWIDTH 3 0
BBX 3 7 0 0
BITMAP
40
00
C0
20
40
A0
E0
ENDCHAR
STARTCHAR atilde
ENCODING 227
SWIDTH 315 0
DWIDTH 3 0
BBX 3 7 0 0
BITMAP
40
00
C0
20
40
A0
E0
ENDCHAR
STARTCHAR adieresis
ENCODING 228
SWIDTH 315 0
DWIDTH 3 0
BBX 3 7 0 0
BITMAP
C0
00
C0
20
40
A0
E0
ENDCHAR
STARTCHAR aring
ENCODING 229
SWIDTH 315 0
DWIDTH 3 0
BBX 3 7 0 0
BITMAP
40
40
C0
20
40
A0
E0
ENDCHAR
STARTCHAR ae
ENCODING 230
SWIDTH 450 0
DWIDTH 4 0
BBX 4 5 0 0
BITMAP
F0
30
70
A0
F0
ENDCHAR
STARTCHAR ccedilla
ENCODING 231
SWIDTH 275 0
DWIDTH 2 0
BBX 2 7 0 -2
BITMAP
C0
80
80
80
C0
40
40
ENDCHAR
STARTCHAR egrave
ENCODING 232
SWIDTH 285 0
DWIDTH 3 0
BBX 2 7 0 0
BITMAP
40
00
C0
C0
C0
80
C0
ENDCHAR
STARTCHAR eacute
ENCODING 233
SWIDTH 285 0
DWIDTH 3 0
BBX 2 7 0 0
BITMAP
40
00
C0
C0
C0
80
C0
ENDCHAR
STARTCHAR ecircumflex
ENCODING 234
SWIDTH 285 0
DWIDTH 3 0
BBX 2 7 0 0
BITMAP
40
00
C0
C0
C0
80
C0
ENDCHAR
STARTCHAR edieresis
ENCODING 235
SWIDTH 285 0
DWIDTH 3 0
BBX 2 7 0 0
BITMAP
C0
00
C0
C0
C0
80
C0
ENDCHAR
STARTCHAR igrave
ENCODING 236
SWIDTH 141 0
DWIDTH 1 0
BBX 1 7 0 0
BITMAP
80
00
80
80
80
80
80
ENDCHAR
STARTCHAR iacute
ENCODING 237
SWIDTH 141 0
DWIDTH 1 0
BBX 1 7 0 0
BITMAP
80
00
80
80
80
80
80
ENDCHAR
STARTCHAR icircumflex
ENCODING 238
SWIDTH 141 0
DWIDTH 1 0
BBX 1 7 0 0
BITMAP
80
00
80
80
80
80
80
ENDCHAR
STARTCHAR idieresis
ENCODING 239
SWIDTH 141 0
DWIDTH 1 0
BBX 1 7 0 0
BITMAP
80
00
80
80
80
80
80
ENDCHAR
STARTCHAR eth
ENCODING 240
SWIDTH 319 0
DWIDTH 3 0
BBX 3 7 0 0
BITMAP
40
40
A0
A0
A0
A0
C0
ENDCHAR
STARTCHAR ntilde
ENCODING 241
SWIDTH 307 0
DWIDTH 3 0
BBX 1 7 1 0
BITMAP
80
00
80
80
80
80
80
ENDCHAR
STARTCHAR ograve
ENCODING 242
SWIDTH 309 0
DWIDTH 3 0
BBX 2 7 0 0
BITMAP
40
00
C0
C0
C0
C0
C0
ENDCHAR
STARTCHAR oacute
ENCODING 243
SWIDTH 309 0
DWIDTH 3 0
BBX 2 7 0 0
BITMAP
40
00
C0
C0
C0
C0
C0
ENDCHAR
STARTCHAR ocircumflex
ENCODING 244
SWIDTH 309 0
DWIDTH 3 0
BBX 2 7 0 0
BITMAP
40
00
C0
C0
C0
C0
C0
ENDCHAR
STARTCHAR otilde
ENCODING 245
SWIDTH 309 0
DWIDTH 3 0
BBX 2 7 0 0
BITMAP
40
00
C0
C0
C0
C0
C0
ENDCHAR
STARTCHAR odieresis
ENCODING 246
SWIDTH 309 0
DWIDTH 3 0
BBX 2 7 0 0
BITMAP
C0
00
C0
C0
C0
C0
C0
ENDCHAR
STARTCHAR divide
ENCODING 247
SWIDTH 577 0
DWIDTH 5 0
BBX 5 5 0 0
BITMAP
20
00
F8
00
20
ENDCHAR
STARTCHAR oslash
ENCODING 248
SWIDTH 309 0
DWIDTH 3 0
BBX 2 5 0 0
BITMAP
C0
C0
C0
C0
C0
ENDCHAR
STARTCHAR ugrave
ENCODING 249
SWIDTH 307 0
DWIDTH 3 0
BBX 2 7 0 0
BITMAP
40
00
C0
C0
C0
C0
C0
ENDCHAR
STARTCHAR uacute
ENCODING 250
SWIDTH 307 0
DWIDTH 3 0
BBX 2 7 0 0
BITMAP
40
00
C0
C0
C0
C0
C0
ENDCHAR
STARTCHAR ucircumflex
ENCODING 251
SWIDTH 307 0
DWIDTH 3 0
BBX 2 7 0 0
BITMAP
40
00
C0
C0
C0
C0
C0
ENDCHAR
STARTCHAR udieresis
ENCODING 252
SWIDTH 307 0
DWIDTH 3 0
BBX 2 7 0 0
BITMAP
C0
00
C0
C0
C0
C0
C0
ENDCHAR
STARTCHAR yacute
ENCODING 253
SWIDTH 285 0
DWIDTH 3 0
BBX 2 9 0 -2
BITMAP
40
00
C0
C0
C0
40
40
40
80
ENDCHAR
STARTCHAR thorn
ENCODING 254
SWIDTH 299 0
DWIDTH 3 0
BBX 2 9 0 -2
BITMAP
80
80
C0
C0
C0
C0
C0
80
80
ENDCHAR
STARTCHAR ydieresis
ENCODING 255
SWIDTH 285 0
DWIDTH 3 0
BBX 2 9 0 -2
BITMAP
C0
00
C0
C0
C0
40
40
40
80
ENDCHAR
STARTCHAR dotlessi
ENCODING 305
SWIDTH 141 0
DWIDTH 1 0
BBX 1 5 0 0
BITMAP
80
80
80
80
80
ENDCHAR
STARTCHAR OE
ENCODING 338
SWIDTH 505 0
DWIDTH 5 0
BBX 4 7 0 0
BITMAP
70
A0
A0
B0
A0
A0
70
ENDCHAR
STARTCHAR oe
ENCODING 339
SWIDTH 492 0
DWIDTH 4 0
BBX 4 5 0 0
BITMAP
F0
B0
B0
A0
F0
ENDCHAR
STARTCHAR Wcircumflex
ENCODING 372
SWIDTH 534 0
DWIDTH 5 0
BBX 4 7 0 0
BITMAP
B0
90
B0
B0
B0
F0
90
ENDCHAR
STARTCHAR wcircumflex
ENCODING 373
SWIDTH 396 0
DWIDTH 4 0
BBX 3 7 0 0
BITMAP
40
00
A0
E0
E0
E0
A0
ENDCHAR
STARTCHAR Ycircumflex
ENCODING 374
SWIDTH 370 0
DWIDTH 3 0
BBX 3 7 0 0
BITMAP
E0
A0
40
40
40
40
40
ENDCHAR
STARTCHAR ycircumflex
ENCODING 375
SWIDTH 285 0
DWIDTH 3 0
BBX 2 9 0 -2
BITMAP
40
00
C0
C0
C0
40
40
40
80
ENDCHAR
STARTCHAR Ydieresis
ENCODING 376
SWIDTH 370 0
DWIDTH 3 0
BBX 3 9 0 0
BITMAP
40
00
A0
A0
40
40
40
40
40
ENDCHAR
STARTCHAR uni0237
ENCODING 567
SWIDTH 141 0
DWIDTH 1 0
BBX 2 7 -1 -2
BITMAP
40
40
40
40
40
40
C0
ENDCHAR
STARTCHAR circumflex
ENCODING 710
SWIDTH 280 0
DWIDTH 3 0
BBX 1 1 1 6
BITMAP
80
ENDCHAR
STARTCHAR ring
ENCODING 730
SWIDTH 238 0
DWIDTH 2 0
BBX 1 2 1 5
BITMAP
80
80
ENDCHAR
STARTCHAR tilde
ENCODING 732
SWIDTH 301 0
DWIDTH 3 0
BBX 1 1 1 6
BITMAP
80
ENDCHAR
STARTCHAR gravecomb
ENCODING 768
SWIDTH 0 0
DWIDTH 0 0
BBX 1 1 0 6
BITMAP
80
ENDCHAR
STARTCHAR acutecomb
ENCODING 769
SWIDTH 0 0
DWIDTH 0 0
BBX 1 1 0 6
BITMAP
80
ENDCHAR
STARTCHAR uni0302
ENCODING 770
SWIDTH 0 0
DWIDTH 0 0
BBX 1 1 1 6
BITMAP
80
ENDCHAR
STARTCHAR tildecomb
ENCODING 771
SWIDTH 0 0
DWIDTH 0 0
BBX 1 1 1 6
BITMAP
80
ENDCHAR
STARTCHAR uni0307
ENCODING 775
SWIDTH 0 0
DWIDTH 0 0
BBX 1 1 0 6
BITMAP
80
ENDCHAR
STARTCHAR uni0308
ENCODING 776
SWIDTH 0 0
DWIDTH 0 0
BBX 1 1 1 6
BITMAP
80
ENDCHAR
STARTCHAR uni030A
ENCODING 778
SWIDTH 0 0
DWIDTH 0 0
BBX 1 2 1 5
BITMAP
80
80
ENDCHAR
STARTCHAR uni0327
ENCODING 807
SWIDTH 0 0
DWIDTH 0 0
BBX 1 2 1 -2
BITMAP
80
80
ENDCHAR
STARTCHAR Wgrave
ENCODING 7808
SWIDTH 534 0
DWIDTH 5 0
BBX 4 9 0 0
BITMAP
20
00
90
90
B0
B0
B0
F0
90
ENDCHAR
STARTCHAR wgrave
ENCODING 7809
SWIDTH 396 0
DWIDTH 4 0
BBX 3 7 0 0
BITMAP
40
00
A0
E0
E0
E0
A0
ENDCHAR
STARTCHAR Wacute
ENCODING 7810
SWIDTH 534 0
DWIDTH 5 0
BBX 4 9 0 0
BITMAP
20
00
90
90
B0
B0
B0
F0
90
ENDCHAR
STARTCHAR wacute
ENCODING 7811
SWIDTH 396 0
DWIDTH 4 0
BBX 3 7 0 0
BITMAP
40
00
A0
E0
E0
E0
A0
ENDCHAR
STARTCHAR Wdieresis
ENCODING 7812
SWIDTH 534 0
DWIDTH 5 0
BBX 4 9 0 0
BITMAP
60
00
90
90
B0
B0
B0
F0
90
ENDCHAR
STARTCHAR wdieresis
ENCODING 7813
SWIDTH 396 0
DWIDTH 4 0
BBX 3 7 0 0
BITMAP
40
00
A0
E0
E0
E0
A0
ENDCHAR
STARTCHAR uni1E9E
ENCODING 7838
SWIDTH 375 0
DWIDTH 3 0
BBX 2 7 1 0
BITMAP
80
C0
C0
C0
C0
C0
80
ENDCHAR
STARTCHAR Ygrave
ENCODING 7922
SWIDTH 370 0
DWIDTH 3 0
BBX 3 9 0 0
BITMAP
40
00
A0
A0
40
40
40
40
40
ENDCHAR
STARTCHAR ygrave
ENCODING 7923
SWIDTH 285 0
DWIDTH 3 0
BBX 2 9 0 -2
BITMAP
40
00
C0
C0
C0
40
40
40
80
ENDCHAR
STARTCHAR endash
ENCODING 8211
SWIDTH 425 0
DWIDTH 4 0
BBX 3 1 0 2
BITMAP
E0
ENDCHAR
STARTCHAR emdash
ENCODING 8212
SWIDTH 770 0
DWIDTH 7 0
BBX 7 1 0 2
BITMAP
FE
ENDCHAR
STARTCHAR quoteleft
ENCODING 8216
SWIDTH 145 0
DWIDTH 1 0
BBX 1 2 0 5
BITMAP
80
80
ENDCHAR
STARTCHAR quoteright
ENCODING 8217
SWIDTH 145 0
DWIDTH 1 0
BBX 1 2 0 4
BITMAP
80
80
ENDCHAR
STARTCHAR quotesinglbase
ENCODING 8218
SWIDTH 145 0
DWIDTH 1 0
BBX 1 2 0 -2
BITMAP
80
80
ENDCHAR
STARTCHAR quotedblleft
ENCODING 8220
SWIDTH 219 0
DWIDTH 2 0
BBX 2 2 0 5
BITMAP
C0
80
ENDCHAR
STARTCHAR quotedblright
ENCODING 8221
SWIDTH 219 0
DWIDTH 2 0
BBX 2 2 0 4
BITMAP
40
80
ENDCHAR
STARTCHAR quotedblbase
ENCODING 8222
SWIDTH 219 0
DWIDTH 2 0
BBX 1 2 0 -2
BITMAP
80
80
ENDCHAR
STARTCHAR bullet
ENCODING 8226
SWIDTH 355 0
DWIDTH 3 0
BBX 2 2 1 3
BITMAP
80
C0
ENDCHAR
STARTCHAR ellipsis
ENCODING 8230
SWIDTH 651 0
DWIDTH 6 0
BBX 4 1 1 0
BITMAP
D0
ENDCHAR
STARTCHAR guilsinglleft
ENCODING 8249
SWIDTH 263 0
DWIDTH 2 0
BBX 2 4 0 1
BITMAP
40
80
80
40
ENDCHAR
STARTCHAR guilsinglright
ENCODING 8250
SWIDTH 263 0
DWIDTH 2 0
BBX 2 4 0 0
BITMAP
80
40
40
80
ENDCHAR
STARTCHAR fraction
ENCODING 8260
SWIDTH 152 0
DWIDTH 1 0
BBX 3 7 -1 0
BITMAP
20
20
20
40
40
80
80
ENDCHAR
STARTCHAR uni2074
ENCODING 8308
SWIDTH 247 0
DWIDTH 2 0
BBX 2 3 0 3
BITMAP
40
80
C0
ENDCHAR
STARTCHAR Euro
ENCODING 8364
SWIDTH 391 0
DWIDTH 4 0
BBX 3 7 0 0
BITMAP
60
80
C0
C0
80
80
60
ENDCHAR
STARTCHAR trademark
ENCODING 8482
SWIDTH 506 0
DWIDTH 5 0
BBX 4 3 0 3
BITMAP
F0
B0
B0
ENDCHAR
STARTCHAR minus
ENCODING 8722
SWIDTH 557 0
DWIDTH 5 0
BBX 5 1 0 2
BITMAP
F8
ENDCHAR
STARTCHAR uni2215
ENCODING 8725
SWIDTH 259 0
DWIDTH 2 0
BBX 2 7 0 0
BITMAP
40
40
40
40
80
80
80
ENDCHAR
STARTCHAR .notdef
ENCODING -1
SWIDTH 500 0
DWIDTH 5 0
BBX 4 9 0 -2
BITMAP
F0
90
90
90
90
90
90
90
F0
ENDCHAR
STARTCHAR NULL
ENCODING -1
SWIDTH 600 0
DWIDTH 5 0
BBX 1 1 0 0
BITMAP
00
ENDCHAR
STARTCHAR acutecomb.case
ENCODING -1
SWIDTH 0 0
DWIDTH 0 0
BBX 1 1 0 8
BITMAP
80
ENDCHAR
STARTCHAR uni0302.case
ENCODING -1
SWIDTH 0 0
DWIDTH 0 0
BBX 1 1 1 7
BITMAP
80
ENDCHAR
STARTCHAR uni0308.case
ENCODING -1
SWIDTH 0 0
DWIDTH 0 0
BBX 1 1 1 8
BITMAP
80
ENDCHAR
STARTCHAR uni0307.case
ENCODING -1
SWIDTH 0 0
DWIDTH 0 0
BBX 1 1 0 8
BITMAP
80
ENDCHAR
STARTCHAR gravecomb.case
ENCODING -1
SWIDTH 0 0
DWIDTH 0 0
BBX 1 1 0 8
BITMAP
80
ENDCHAR
STARTCHAR uni030A.case
ENCODING -1
SWIDTH 0 0
DWIDTH 0 0
BBX 1 2 1 7
BITMAP
80
80
ENDCHAR
STARTCHAR tildecomb.case
ENCODING -1
SWIDTH 0 0
DWIDTH 0 0
BBX 1 1 1 8
BITMAP
80
ENDCHAR
ENDFONT
